<svg xmlns="http://www.w3.org/2000/svg" xmlns:xlink="http://www.w3.org/1999/xlink" width="275.734" height="86.464" viewBox="0 0 275.734 86.464">
  <defs>
    <clipPath id="clip-path">
      <path id="Path_37" data-name="Path 37" d="M0,62.885H275.734V-23.578H0Z" transform="translate(0 23.578)" fill="#fff"/>
    </clipPath>
  </defs>
  <g id="Group_1168" data-name="Group 1168" transform="translate(0 23.578)">
    <g id="Group_1052" data-name="Group 1052" transform="translate(0 -23.578)" clip-path="url(#clip-path)">
      <g id="Group_1051" data-name="Group 1051" transform="translate(114.203 9.731)">
        <path id="Path_36" data-name="Path 36" d="M24.233,12.367a16.281,16.281,0,0,1-2.787,9.505A16.855,16.855,0,0,1,7.6,29.141,16.05,16.05,0,0,1-4.469,23.974,16.911,16.911,0,0,1-9.086,11.913,16.285,16.285,0,0,1-4.15.163a16.391,16.391,0,0,1,11.837-4.8A16.607,16.607,0,0,1,23.32,6.562H14.27A8.9,8.9,0,0,0,7.6,3.409,8.525,8.525,0,0,0-.9,11.957C-.9,17.12,3.118,21.1,7.6,21.1a8.26,8.26,0,0,0,7.312-4.39H5.634V10.218H24.142c.044.733.092,1.463.092,2.149" transform="translate(9.086 4.637)" fill="#fff"/>
      </g>
    </g>
    <g id="Group_1053" data-name="Group 1053" transform="translate(149.857 -13.203)">
      <path id="Path_38" data-name="Path 38" d="M0,23.633V-8.861H7.906V16.457h9.278v7.177Z" transform="translate(0 8.861)" fill="#fff"/>
    </g>
    <g id="Group_1056" data-name="Group 1056" transform="translate(0 -23.578)" clip-path="url(#clip-path)">
      <g id="Group_1054" data-name="Group 1054" transform="translate(167.226 9.779)">
        <path id="Path_39" data-name="Path 39" d="M3.59,3.457A16.343,16.343,0,0,1,15.427-1.3a16.434,16.434,0,0,1,11.61,4.8,16.435,16.435,0,0,1,5.024,11.834,16.855,16.855,0,0,1-4.7,11.977A16.491,16.491,0,0,1,15.38,32.386,16.1,16.1,0,0,1,3.271,27.267,16.914,16.914,0,0,1-1.346,15.2,16.269,16.269,0,0,1,3.59,3.457M15.38,24.344c4.665,0,8.456-3.748,8.456-9.05a8.5,8.5,0,1,0-17,0,8.889,8.889,0,0,0,8.544,9.05" transform="translate(1.346 1.296)" fill="#fff"/>
      </g>
      <g id="Group_1055" data-name="Group 1055" transform="translate(203.151 10.372)">
        <path id="Path_40" data-name="Path 40" d="M0,0H11.108c6.626,0,10.055,2.879,10.055,8,0,3.381-1.236,5.53-4.07,6.949,3.748,1.14,5.578,3.564,5.578,7.5a10.085,10.085,0,0,1-3.154,7.631C17.14,32.223,14.17,32.5,9.872,32.5H0ZM9.6,12.615c2.97,0,4.342-.638,4.342-2.743,0-2.149-1.188-3.062-3.656-3.062h-2.6v5.805Zm.777,13.07c3.018,0,4.434-.73,4.434-3.381,0-2.743-1.416-3.473-4.569-3.473H7.679v6.854Z" fill="#fff"/>
      </g>
    </g>
    <g id="Group_1057" data-name="Group 1057" transform="translate(225.641 -13.206)">
      <path id="Path_42" data-name="Path 42" d="M6.316,23.636H-2.368l12.476-32.5H16.6l12.479,32.5H20.3l-1.6-4.709H7.962ZM13.357,1.787,10.108,12.209h6.447Z" transform="translate(2.368 8.862)" fill="#fff"/>
    </g>
    <g id="Group_1058" data-name="Group 1058" transform="translate(258.55 -13.206)">
      <path id="Path_43" data-name="Path 43" d="M0,0V32.494H17.184V25.321H7.906V0Z" fill="#fff"/>
    </g>
    <g id="Group_1059" data-name="Group 1059" transform="translate(115.621 21.097)">
      <path id="Path_44" data-name="Path 44" d="M0,23.633V-8.861H17.642v7.173H7.95V3.571h9.692v7.221H7.95v5.666h9.692v7.177Z" transform="translate(0 8.861)" fill="#fff"/>
    </g>
    <g id="Group_1064" data-name="Group 1064" transform="translate(0 -23.578)" clip-path="url(#clip-path)">
      <g id="Group_1060" data-name="Group 1060" transform="translate(135.273 44.034)">
        <path id="Path_45" data-name="Path 45" d="M7.713,24.564c-6.4,0-10.605-4.159-10.605-9.505,0-3.429,1.922-5.988,5.853-8.823C1.039,3.768.126,1.439.126-.618c0-4.936,3.612-8.592,8.867-8.592,4.984,0,8.592,3.608,8.592,7.771,0,2.7-1.463,5.438-4.294,7.767L16.9,9.94l2.332-5.028h7.356a58.433,58.433,0,0,1-4.753,10.33l4.206,4.386-4.936,5.028-3.7-3.8a13.313,13.313,0,0,1-9.689,3.7M7.578,10.717c-1.83,1-2.743,2.376-2.743,3.792a3.257,3.257,0,0,0,3.517,3.154c1.463,0,2.7-.73,4.206-1.966ZM10.959-1.212a1.792,1.792,0,0,0-1.83-1.966,1.982,1.982,0,0,0-2.01,2.149A5.188,5.188,0,0,0,9.037,2.627a5.534,5.534,0,0,0,1.922-3.839" transform="translate(2.892 9.21)" fill="#fff"/>
      </g>
      <g id="Group_1061" data-name="Group 1061" transform="translate(166.357 44.034)">
        <path id="Path_46" data-name="Path 46" d="M12.133,24.564A16.054,16.054,0,0,1,.068,19.4,16.929,16.929,0,0,1-4.549,7.332,16.1,16.1,0,0,1,.387-4.413a16.382,16.382,0,0,1,11.837-4.8C19.812-9.21,26.3-4.23,28.4,3.772H19.812C18.073.57,15.47-1.12,12.268-1.12a8.486,8.486,0,0,0-8.636,8.5c0,5.167,4.023,9.142,8.5,9.142a8.566,8.566,0,0,0,7.5-4.665h8.636c-2.145,7.91-8.317,12.707-16.132,12.707" transform="translate(4.549 9.21)" fill="#fff"/>
      </g>
      <g id="Group_1062" data-name="Group 1062" transform="translate(16.611 5.508)">
        <path id="Path_47" data-name="Path 47" d="M57.9,40.841a47.211,47.211,0,0,0,.264-21.882A47.594,47.594,0,0,0,38.126-10.158,40.131,40.131,0,0,0-20.5,15.127,39.907,39.907,0,0,0-19.814,37a32.334,32.334,0,0,1,.026-15.64A32.486,32.486,0,0,1,31.877,3.744,40.123,40.123,0,0,1,44.2,43.5c-.125.5-.26,1-.4,1.493l6.791,11.779A47.349,47.349,0,0,0,57.9,40.841" transform="translate(21.707 15.313)" fill="#fff"/>
      </g>
      <g id="Group_1063" data-name="Group 1063" transform="translate(0.001 0)">
        <path id="Path_48" data-name="Path 48" d="M10.965,24.154A40.172,40.172,0,0,1,69.595-1.131,47.44,47.44,0,0,0,6.337,68.079l8.247-15.167a40,40,0,0,1-3.619-28.758" transform="translate(4.111 9.056)" fill="#fff"/>
      </g>
    </g>
    <g id="Group_1065" data-name="Group 1065" transform="translate(14.391 2.935)">
      <path id="Path_50" data-name="Path 50" d="M0,39.86,31.644-14.945V5.008L17.279,29.882Z" transform="translate(0 14.945)" fill="#fff"/>
    </g>
    <g id="Group_1066" data-name="Group 1066" transform="translate(17.889 52.875)">
      <path id="Path_51" data-name="Path 51" d="M12.57,0-4.713,9.978l63.265.033L41.214,0Z" transform="translate(4.713)" fill="#fff"/>
    </g>
    <g id="Group_1067" data-name="Group 1067" transform="translate(52.648 3.229)">
      <path id="Path_52" data-name="Path 52" d="M0,0,31.644,54.8,14.415,44.852,0,19.883Z" fill="#fff"/>
    </g>
  </g>
</svg>
